<svg width="205" height="226" viewBox="0 0 205 226" fill="none" xmlns="http://www.w3.org/2000/svg">
<path d="M115.87 164.334C115.843 166.043 115.47 167.729 114.772 169.298C114.074 170.866 113.065 172.286 111.802 173.476C110.539 174.665 109.047 175.602 107.411 176.231C105.776 176.861 104.028 177.171 102.269 177.145C94.7625 177.145 89.1304 171.857 89.1304 164.783C89.1304 157.709 94.7625 151.523 102.269 151.523C104.028 151.497 105.776 151.808 107.411 152.437C109.047 153.067 110.539 154.003 111.802 155.193C113.065 156.383 114.074 157.802 114.772 159.371C115.47 160.939 115.843 162.626 115.87 164.334Z" fill="#3BB3FF"/>
<path d="M18.9402 61.7408C18.9402 66.6655 14.3442 70.1857 9.2415 70.1857C8.04192 70.2237 6.8469 70.0213 5.72743 69.5907C4.60797 69.1601 3.58689 68.51 2.72484 67.679C1.8628 66.848 1.17738 65.8531 0.709294 64.7534C0.241205 63.6536 0 62.4715 0 61.2772C0 60.0829 0.241205 58.9007 0.709294 57.801C1.17738 56.7012 1.8628 55.7063 2.72484 54.8753C3.58689 54.0444 4.60797 53.3943 5.72743 52.9636C6.8469 52.533 8.04192 52.3307 9.2415 52.3686C14.3171 52.3686 18.9402 56.8251 18.9402 61.7408Z" fill="#3BB3FF"/>
<path d="M196.087 70.1902C201.01 70.1902 205 66.1997 205 61.2772C205 56.3546 201.01 52.3641 196.087 52.3641C191.164 52.3641 187.174 56.3546 187.174 61.2772C187.174 66.1997 191.164 70.1902 196.087 70.1902Z" fill="#3BB3FF"/>
<path d="M196.087 121.44C201.01 121.44 205 117.45 205 112.527C205 107.605 201.01 103.614 196.087 103.614C191.164 103.614 187.174 107.605 187.174 112.527C187.174 117.45 191.164 121.44 196.087 121.44Z" fill="#3BB3FF"/>
<path d="M103.057 130.353C113.21 130.353 121.44 122.372 121.44 112.527C121.44 102.682 113.21 94.701 103.057 94.701C92.9043 94.701 84.6739 102.682 84.6739 112.527C84.6739 122.372 92.9043 130.353 103.057 130.353Z" fill="#3BB3FF"/>
<path d="M17.8261 112.514C17.7884 114.918 16.8038 117.208 15.0888 118.882C13.3738 120.555 11.0687 121.475 8.68015 121.439C3.63689 121.439 0 117.905 0 112.982C0 108.06 3.63689 103.615 8.68015 103.615C11.0641 103.579 13.3652 104.495 15.0794 106.163C16.7937 107.831 17.7813 110.114 17.8261 112.514Z" fill="#3BB3FF"/>
<path d="M162.663 137.957C162.663 145.199 157.125 151.522 149.743 151.522C142.362 151.522 135.924 145.199 135.924 137.957C136.013 134.433 137.461 131.082 139.958 128.621C142.456 126.16 145.806 124.783 149.294 124.783C152.781 124.783 156.131 126.16 158.629 128.621C161.126 131.082 162.574 134.433 162.663 137.957Z" fill="#3BB3FF"/>
<path d="M162.663 85.7925C162.636 87.5769 162.263 89.3385 161.564 90.9764C160.866 92.6143 159.855 94.0962 158.591 95.3375C157.327 96.5788 155.834 97.555 154.197 98.2101C152.561 98.8653 150.813 99.1865 149.054 99.1555C141.552 99.1555 135.924 93.6356 135.924 86.2517C135.924 78.8678 141.552 72.4203 149.054 72.4203C150.813 72.3906 152.562 72.7129 154.198 73.3691C155.835 74.0252 157.328 75.0022 158.592 76.2442C159.856 77.4862 160.866 78.9688 161.565 80.6072C162.263 82.2456 162.636 84.0076 162.663 85.7925Z" fill="#3BB3FF"/>
<path d="M69.0761 137.883C68.987 141.532 67.5393 145 65.0417 147.548C62.5442 150.096 59.1944 151.522 55.7066 151.522C52.2188 151.522 48.8689 150.096 46.3714 147.548C43.8738 145 42.4261 141.532 42.337 137.883C42.337 130.387 48.775 124.783 56.1564 124.783C63.5378 124.783 69.0761 130.387 69.0761 137.883Z" fill="#3BB3FF"/>
<path d="M69.0761 86.0917C68.987 89.5874 67.5393 92.9099 65.0417 95.3507C62.5442 97.7915 59.1944 99.1576 55.7066 99.1576C52.2188 99.1576 48.8689 97.7915 46.3714 95.3507C43.8738 92.9099 42.4261 89.5874 42.337 86.0917C42.337 78.9101 48.775 73.5326 56.1564 73.5326C63.5378 73.5326 69.0761 78.9101 69.0761 86.0917Z" fill="#3BB3FF"/>
<path d="M102.5 225.054C107.423 225.054 111.413 221.064 111.413 216.141C111.413 211.219 107.423 207.228 102.5 207.228C97.5775 207.228 93.587 211.219 93.587 216.141C93.587 221.064 97.5775 225.054 102.5 225.054Z" fill="white"/>
<path d="M102.5 17.8261C107.423 17.8261 111.413 13.8356 111.413 8.91304C111.413 3.99051 107.423 0 102.5 0C97.5775 0 93.587 3.99051 93.587 8.91304C93.587 13.8356 97.5775 17.8261 102.5 17.8261Z" fill="white"/>
<path d="M8.91304 173.804C13.8356 173.804 17.8261 169.814 17.8261 164.891C17.8261 159.969 13.8356 155.978 8.91304 155.978C3.9905 155.978 0 159.969 0 164.891C0 169.814 3.9905 173.804 8.91304 173.804Z" fill="white"/>
<path d="M196.087 173.804C201.01 173.804 205 169.814 205 164.891C205 159.969 201.01 155.978 196.087 155.978C191.164 155.978 187.174 159.969 187.174 164.891C187.174 169.814 191.164 173.804 196.087 173.804Z" fill="white"/>
<path d="M102.5 73.5326C109.884 73.5326 115.87 67.5468 115.87 60.163C115.87 52.7792 109.884 46.7935 102.5 46.7935C95.1162 46.7935 89.1304 52.7792 89.1304 60.163C89.1304 67.5468 95.1162 73.5326 102.5 73.5326Z" fill="white"/>
<path d="M55.7065 199.429C60.629 199.429 64.6195 195.439 64.6195 190.516C64.6195 185.594 60.629 181.603 55.7065 181.603C50.784 181.603 46.7935 185.594 46.7935 190.516C46.7935 195.439 50.784 199.429 55.7065 199.429Z" fill="white"/>
<path d="M149.293 199.429C154.216 199.429 158.207 195.439 158.207 190.516C158.207 185.594 154.216 181.603 149.293 181.603C144.371 181.603 140.38 185.594 140.38 190.516C140.38 195.439 144.371 199.429 149.293 199.429Z" fill="white"/>
<path d="M55.7065 43.4511C60.629 43.4511 64.6195 39.4606 64.6195 34.538C64.6195 29.6155 60.629 25.625 55.7065 25.625C50.784 25.625 46.7935 29.6155 46.7935 34.538C46.7935 39.4606 50.784 43.4511 55.7065 43.4511Z" fill="white"/>
<path d="M149.293 43.4511C154.216 43.4511 158.207 39.4606 158.207 34.538C158.207 29.6155 154.216 25.625 149.293 25.625C144.371 25.625 140.38 29.6155 140.38 34.538C140.38 39.4606 144.371 43.4511 149.293 43.4511Z" fill="white"/>
</svg>
